<mxfile host="app.diagrams.net" modified="2024-01-07T21:04:53.124Z" agent="Mozilla/5.0 (Windows NT 10.0; Win64; x64) AppleWebKit/537.36 (KHTML, like Gecko) Chrome/120.0.0.0 Safari/537.36" etag="lJZth6uHY3qjIZQEBwVA" version="22.1.17" type="github">
  <diagram name="Page-1" id="55a83fd1-7818-8e21-69c5-c3457e3827bb">
    <mxGraphModel dx="1434" dy="780" grid="1" gridSize="10" guides="1" tooltips="1" connect="1" arrows="1" fold="1" page="1" pageScale="1" pageWidth="1100" pageHeight="850" background="none" math="0" shadow="0">
      <root>
        <mxCell id="0" />
        <mxCell id="1" parent="0" />
        <mxCell id="wKzY5KIjKOqRqzkmO9Px-16" value="" style="rounded=1;whiteSpace=wrap;html=1;" vertex="1" parent="1">
          <mxGeometry x="280" y="50" width="350" height="220" as="geometry" />
        </mxCell>
        <mxCell id="69ecfefc5c41e42c-2" value="Internet" style="image;html=1;labelBackgroundColor=#ffffff;image=img/lib/clip_art/networking/Cloud_128x128.png;rounded=1;shadow=0;comic=0;strokeWidth=2;fontSize=22;labelPosition=center;verticalLabelPosition=bottom;align=center;verticalAlign=top;" parent="1" vertex="1">
          <mxGeometry x="280" y="330" width="320" height="215" as="geometry" />
        </mxCell>
        <mxCell id="wKzY5KIjKOqRqzkmO9Px-6" style="edgeStyle=orthogonalEdgeStyle;rounded=0;orthogonalLoop=1;jettySize=auto;html=1;exitX=0.5;exitY=0;exitDx=0;exitDy=0;entryX=1;entryY=0.5;entryDx=0;entryDy=0;strokeColor=#e70d0d;strokeWidth=3;startArrow=classic;startFill=1;" edge="1" parent="1" source="69ecfefc5c41e42c-9" target="wKzY5KIjKOqRqzkmO9Px-2">
          <mxGeometry relative="1" as="geometry" />
        </mxCell>
        <mxCell id="69ecfefc5c41e42c-9" value="User2" style="image;html=1;labelBackgroundColor=#ffffff;image=img/lib/clip_art/computers/Netbook_128x128.png;rounded=1;shadow=0;comic=0;strokeColor=#000000;strokeWidth=2;fillColor=#FFFFFF;fontSize=22;fontColor=#000000;" parent="1" vertex="1">
          <mxGeometry x="510" y="610" width="80" height="80" as="geometry" />
        </mxCell>
        <mxCell id="wKzY5KIjKOqRqzkmO9Px-7" style="edgeStyle=orthogonalEdgeStyle;rounded=0;orthogonalLoop=1;jettySize=auto;html=1;exitX=0.5;exitY=0;exitDx=0;exitDy=0;entryX=0;entryY=0.5;entryDx=0;entryDy=0;strokeColor=#e70d0d;strokeWidth=3;startArrow=classic;startFill=1;" edge="1" parent="1" source="wKzY5KIjKOqRqzkmO9Px-1" target="wKzY5KIjKOqRqzkmO9Px-2">
          <mxGeometry relative="1" as="geometry" />
        </mxCell>
        <mxCell id="wKzY5KIjKOqRqzkmO9Px-1" value="User1" style="image;html=1;labelBackgroundColor=#ffffff;image=img/lib/clip_art/computers/Netbook_128x128.png;rounded=1;shadow=0;comic=0;strokeColor=#000000;strokeWidth=2;fillColor=#FFFFFF;fontSize=22;fontColor=#000000;" vertex="1" parent="1">
          <mxGeometry x="310" y="610" width="80" height="80" as="geometry" />
        </mxCell>
        <mxCell id="wKzY5KIjKOqRqzkmO9Px-2" value="&lt;font style=&quot;font-size: 22px;&quot;&gt;Server&lt;/font&gt;" style="image;html=1;image=img/lib/clip_art/computers/Server_Rack_128x128.png" vertex="1" parent="1">
          <mxGeometry x="410" y="140" width="80" height="80" as="geometry" />
        </mxCell>
        <mxCell id="wKzY5KIjKOqRqzkmO9Px-9" value="&lt;span style=&quot;color: rgb(0, 0, 0); font-family: Helvetica; font-size: 22px; font-style: normal; font-variant-ligatures: normal; font-variant-caps: normal; font-weight: 400; letter-spacing: normal; orphans: 2; text-align: center; text-indent: 0px; text-transform: none; widows: 2; word-spacing: 0px; -webkit-text-stroke-width: 0px; background-color: rgb(255, 255, 255); text-decoration-thickness: initial; text-decoration-style: initial; text-decoration-color: initial; float: none; display: inline !important;&quot;&gt;tcp/port 8888&lt;/span&gt;" style="text;whiteSpace=wrap;html=1;" vertex="1" parent="1">
          <mxGeometry x="390" y="100" width="140" height="50" as="geometry" />
        </mxCell>
        <mxCell id="wKzY5KIjKOqRqzkmO9Px-10" value="&lt;div style=&quot;text-align: center;&quot;&gt;&lt;span style=&quot;font-size: 22px; background-color: rgb(255, 255, 255);&quot;&gt;established&lt;/span&gt;&lt;/div&gt;" style="text;whiteSpace=wrap;html=1;rotation=-90;" vertex="1" parent="1">
          <mxGeometry x="450" y="230" width="160" height="40" as="geometry" />
        </mxCell>
        <mxCell id="wKzY5KIjKOqRqzkmO9Px-11" value="&lt;div style=&quot;text-align: center;&quot;&gt;&lt;span style=&quot;font-size: 22px; background-color: rgb(255, 255, 255);&quot;&gt;established&lt;/span&gt;&lt;/div&gt;" style="text;whiteSpace=wrap;html=1;rotation=-90;" vertex="1" parent="1">
          <mxGeometry x="250" y="220" width="160" height="40" as="geometry" />
        </mxCell>
        <mxCell id="wKzY5KIjKOqRqzkmO9Px-12" value="&lt;font style=&quot;font-size: 22px;&quot;&gt;Message to User1&lt;/font&gt;" style="image;html=1;image=img/lib/clip_art/networking/Email_128x128.png" vertex="1" parent="1">
          <mxGeometry x="610" y="300" width="80" height="80" as="geometry" />
        </mxCell>
        <mxCell id="wKzY5KIjKOqRqzkmO9Px-13" value="&lt;font style=&quot;font-size: 22px;&quot;&gt;Message to User1&lt;br&gt;from User2&lt;br&gt;&lt;/font&gt;" style="image;html=1;image=img/lib/clip_art/networking/Email_128x128.png" vertex="1" parent="1">
          <mxGeometry x="210" y="300" width="80" height="80" as="geometry" />
        </mxCell>
        <mxCell id="wKzY5KIjKOqRqzkmO9Px-14" value="&lt;font style=&quot;font-size: 22px;&quot;&gt;AES&lt;/font&gt;" style="sketch=0;points=[[0.5,0,0],[1,0.5,0],[0.5,1,0],[0,0.5,0],[0.145,0.145,0],[0.8555,0.145,0],[0.855,0.8555,0],[0.145,0.855,0]];verticalLabelPosition=top;html=1;verticalAlign=bottom;aspect=fixed;align=center;pointerEvents=1;shape=mxgraph.cisco19.lock;fillColor=#005073;strokeColor=none;labelPosition=center;" vertex="1" parent="1">
          <mxGeometry x="625" y="315" width="50" height="50" as="geometry" />
        </mxCell>
        <mxCell id="wKzY5KIjKOqRqzkmO9Px-15" value="AES" style="sketch=0;points=[[0.5,0,0],[1,0.5,0],[0.5,1,0],[0,0.5,0],[0.145,0.145,0],[0.8555,0.145,0],[0.855,0.8555,0],[0.145,0.855,0]];verticalLabelPosition=top;html=1;verticalAlign=bottom;aspect=fixed;align=center;pointerEvents=1;shape=mxgraph.cisco19.lock;fillColor=#005073;strokeColor=none;labelPosition=center;fontSize=22;" vertex="1" parent="1">
          <mxGeometry x="225" y="310" width="50" height="50" as="geometry" />
        </mxCell>
        <mxCell id="wKzY5KIjKOqRqzkmO9Px-17" value="&lt;span style=&quot;font-family: Helvetica; font-style: normal; font-variant-ligatures: normal; font-variant-caps: normal; font-weight: 400; letter-spacing: normal; orphans: 2; text-align: center; text-indent: 0px; text-transform: none; widows: 2; word-spacing: 0px; -webkit-text-stroke-width: 0px; background-color: rgb(255, 255, 255); text-decoration-thickness: initial; text-decoration-style: initial; text-decoration-color: initial; float: none; display: inline !important;&quot;&gt;&lt;font style=&quot;font-size: 27px;&quot; color=&quot;#241cff&quot;&gt;Secure area&lt;/font&gt;&lt;/span&gt;" style="text;whiteSpace=wrap;html=1;" vertex="1" parent="1">
          <mxGeometry x="370" y="50" width="180" height="50" as="geometry" />
        </mxCell>
      </root>
    </mxGraphModel>
  </diagram>
</mxfile>
